<?xml version="1.0" standalone="no"?>
<!DOCTYPE svg PUBLIC "-//W3C//DTD SVG 20010904//EN"
 "http://www.w3.org/TR/2001/REC-SVG-20010904/DTD/svg10.dtd">
<svg version="1.0" xmlns="http://www.w3.org/2000/svg"
 width="240.000000pt" height="320.000000pt" viewBox="0 0 240.000000 320.000000"
 preserveAspectRatio="xMidYMid meet">
<metadata>
Created by potrace 1.13, written by Peter Selinger 2001-2015
</metadata>
<g transform="translate(0.000000,320.000000) scale(0.100000,-0.100000)"
fill="#000000" stroke="none">
<path d="M888 2124 l-3 -76 -49 -19 c-63 -23 -131 -90 -153 -149 -11 -27 -18
-71 -18 -110 1 -118 51 -178 233 -277 57 -32 115 -70 128 -86 31 -36 31 -78 0
-114 -22 -26 -30 -28 -93 -28 -60 0 -76 5 -136 38 -37 20 -69 37 -72 37 -2 0
-25 -34 -50 -75 -38 -61 -45 -78 -35 -90 22 -27 97 -64 173 -86 l77 -23 0 -68
0 -68 75 0 75 0 0 74 0 73 44 17 c114 44 176 128 184 251 9 138 -44 208 -233
305 -148 76 -183 122 -135 183 38 47 138 43 208 -10 18 -13 36 -23 41 -21 5 2
31 30 59 63 l51 60 -27 28 c-35 37 -96 72 -149 87 l-43 11 0 74 0 75 -75 0
-74 0 -3 -76z"/>
<path d="M1380 945 l0 -65 356 0 355 0 -3 63 -3 62 -352 3 -353 2 0 -65z"/>
</g>
</svg>
